<?xml version="1.0" standalone="no"?>
<!DOCTYPE svg PUBLIC "-//W3C//DTD SVG 20010904//EN"
 "http://www.w3.org/TR/2001/REC-SVG-20010904/DTD/svg10.dtd">
<svg version="1.0" xmlns="http://www.w3.org/2000/svg"
 width="100.000000pt" height="100.000000pt" viewBox="0 0 100.000000 100.000000"
 preserveAspectRatio="xMidYMid meet">
<metadata>
Created by potrace 1.11, written by Peter Selinger 2001-2013
</metadata>
<g transform="translate(0.000000,100.000000) scale(0.100000,-0.100000)"
fill="#000000" stroke="none">
<path d="M0 500 l0 -500 500 0 500 0 0 500 0 500 -500 0 -500 0 0 -500z m825
189 c41 -56 75 -105 75 -110 0 -5 -87 -97 -192 -205 -106 -108 -194 -200 -196
-205 -2 -5 -10 -9 -17 -9 -18 0 -399 396 -403 418 -1 9 29 61 69 115 l71 97
259 0 259 0 75 -101z"/>
<path d="M285 741 c-6 -11 35 -101 47 -101 12 0 87 84 88 98 0 14 -125 17
-135 3z"/>
<path d="M564 739 c-6 -11 72 -99 88 -99 9 0 48 83 48 101 0 13 -127 11 -136
-2z"/>
<path d="M433 681 c-23 -27 -39 -51 -36 -55 10 -9 193 -7 193 3 0 16 -82 101
-98 101 -10 0 -36 -22 -59 -49z"/>
<path d="M206 668 c-13 -18 -22 -36 -20 -40 7 -11 72 -10 79 2 5 9 -20 70 -30
70 -2 0 -15 -14 -29 -32z"/>
<path d="M727 666 c-8 -19 -13 -37 -10 -40 9 -8 83 -8 83 1 0 10 -44 73 -51
73 -3 0 -13 -15 -22 -34z"/>
<path d="M167 573 c-6 -10 231 -259 238 -251 8 8 -94 231 -113 246 -17 13
-118 17 -125 5z"/>
<path d="M365 570 c-8 -13 116 -281 128 -277 15 5 128 259 123 274 -6 16 -241
19 -251 3z"/>
<path d="M693 572 c-16 -10 -114 -223 -111 -241 2 -8 51 36 120 108 65 68 115
127 112 132 -6 11 -104 12 -121 1z"/>
</g>
</svg>
